<svg xmlns="http://www.w3.org/2000/svg" viewBox="0 0 180 180" fill="none">
  <path d="M91 32c10 0 18 8 18 18v12c18 5 29 22 29 46 0 34-21 57-47 57-11 0-18-4-24-4s-25-10-25-53c0-24 11-41 29-46V50c0-10 8-18 20-18Z" fill="#fff" stroke="#000" stroke-width="6"/>
  <path d="M71 76c-6 12-7 28-2 47" stroke="#000" stroke-width="6" stroke-linecap="round"/>
  <path d="M91 70v76" stroke="#000" stroke-width="6" stroke-linecap="round"/>
  <path d="M112 76c6 12 7 28 2 47" stroke="#000" stroke-width="6" stroke-linecap="round"/>
</svg>
