<svg xmlns="http://www.w3.org/2000/svg" viewBox="0 0 180 180" fill="none">
  <path d="M92 38c22 11 36 33 36 60 0 27-14 50-36 64-22-14-36-37-36-64 0-27 14-49 36-60Z" fill="#fff" stroke="#000" stroke-width="6"/>
  <path d="M58 132c-10-7-17-17-21-28 11 5 20 11 29 20" fill="#fff" stroke="#000" stroke-width="6" stroke-linejoin="round"/>
  <path d="M126 132c10-7 17-17 21-28-11 5-20 11-29 20" fill="#fff" stroke="#000" stroke-width="6" stroke-linejoin="round"/>
  <g fill="#000">
    <circle cx="78" cy="68" r="5"/><circle cx="92" cy="68" r="5"/><circle cx="106" cy="68" r="5"/>
    <circle cx="78" cy="84" r="5"/><circle cx="92" cy="84" r="5"/><circle cx="106" cy="84" r="5"/>
    <circle cx="78" cy="100" r="5"/><circle cx="92" cy="100" r="5"/><circle cx="106" cy="100" r="5"/>
    <circle cx="78" cy="116" r="5"/><circle cx="92" cy="116" r="5"/><circle cx="106" cy="116" r="5"/>
  </g>
</svg>
