<svg xmlns="http://www.w3.org/2000/svg" viewBox="0 0 180 180" fill="none">
  <path d="M34 122c12-42 48-71 91-71 8 0 15 1 22 3-10 48-49 82-96 82-7 0-12 0-17-2Z" fill="#fff" stroke="#000" stroke-width="6" stroke-linejoin="round"/>
  <path d="M42 117c16-7 33-10 50-10 17 0 33 3 48 8" stroke="#000" stroke-width="6" stroke-linecap="round"/>
  <path d="M56 90c13-11 25-18 41-24M78 127l8-19M95 121l8-19M113 112l7-18" stroke="#000" stroke-width="6" stroke-linecap="round"/>
  <g fill="#000">
    <ellipse cx="79" cy="96" rx="3.5" ry="6" transform="rotate(-20 79 96)"/>
    <ellipse cx="100" cy="93" rx="3.5" ry="6" transform="rotate(-10 100 93)"/>
    <ellipse cx="118" cy="98" rx="3.5" ry="6" transform="rotate(8 118 98)"/>
  </g>
</svg>
