<svg xmlns="http://www.w3.org/2000/svg" viewBox="0 0 180 180" fill="none">
  <path d="M88 55c10-12 22-18 34-18-4 13-12 22-26 28" stroke="#000" stroke-width="6" stroke-linecap="round"/>
  <path d="M90 55c-13-12-30-14-40 0-11 16-10 40 1 61 10 18 24 30 39 30s29-12 39-30c11-21 12-45 1-61-10-14-27-12-40 0Z" fill="#fff" stroke="#000" stroke-width="6"/>
  <path d="M88 46v18" stroke="#000" stroke-width="6" stroke-linecap="round"/>
  <path d="M64 92c8-8 18-11 29-10" stroke="#000" stroke-width="6" stroke-linecap="round"/>
</svg>
